#!OML:ASF I:\Actors\actors\Patient Classification 2\Patient 1\Session 1\actor1.ASF
:FULLY-SPECIFIED
:DEGREES
322
root -0.0969487 18.7218 4.62173 8.63717 -7.78541 -3.29136
lowerback 27.2111 2.79557 -9.24761
upperback 7.35847 0.839821 -2.2264
thorax -6.87204 0.438788 2.55939
lowerneck -10.39 7.04274 10.1799
upperneck 28.4016 8.94912 -4.54504
head 11.6755 4.5146 -2.22226
rclavicle -1.27222e-014 1.43125e-014
rhumerus 7.32116 42.1355 -81.1562
rradius 99.6883
rwrist -62.6816
rhand -28.5278 -36.3728
rfingers 7.12502
rthumb -1.89568 -66.3441
lclavicle -1.27222e-014 1.43125e-014
lhumerus -20.885 -26.887 60.9204
lradius 77.8873
lwrist 20.3041
lhand -28.5292 -59.2056
lfingers 7.12502
lthumb -1.89697 -29.2343
rfemur -6.90392 9.33508 13.3223
rtibia 1.19271e-015
rfoot -11.4499 -13.837
rtoes -5.24665
lfemur -19.5206 2.98897 -12.0531
ltibia 30.8512
lfoot -20.1947 11.01
ltoes -55.4916
323
root -0.0938433 18.7199 4.5987 9.02882 -7.68466 -3.26821
lowerback 27.3391 2.86935 -9.06365
upperback 7.33161 0.969035 -2.19189
thorax -6.97951 0.503729 2.44849
lowerneck -10.625 6.64755 9.94725
upperneck 28.1058 8.34857 -4.34167
head 11.5302 4.2439 -2.18861
rclavicle 7.95139e-016 1.27222e-014
rhumerus 6.66763 42.8288 -82.2988
rradius 99.0564
rwrist -62.4747
rhand -27.9667 -36.1516
rfingers 7.12502
rthumb -1.35378 -66.127
lclavicle 7.95139e-016 1.27222e-014
lhumerus -20.9752 -26.2782 60.5877
lradius 76.9047
lwrist 19.9314
lhand -28.6783 -59.5117
lfingers 7.12502
lthumb -2.04101 -29.5418
rfemur -7.39885 9.18136 13.2241
rtibia 1.98785e-015
rfoot -11.3683 -13.8379
rtoes -5.25823
lfemur -20.1411 3.18438 -12.1038
ltibia 30.9821
lfoot -20.1264 10.906
ltoes -55.5681
324
root -0.0851748 18.7179 4.58672 9.21293 -7.78135 -3.29783
lowerback 27.5379 3.00615 -8.87968
upperback 7.41986 1.17128 -2.20118
thorax -6.99727 0.595648 2.26444
lowerneck -10.9647 6.27606 9.7526
upperneck 27.8112 7.76524 -4.13566
head 11.4143 3.98254 -2.15395
rclavicle -1.98785e-014 1.59028e-014
rhumerus 6.14563 43.2451 -83.3263
rradius 98.4596
rwrist -62.2301
rhand -27.4358 -36.8198
rfingers 7.12502
rthumb -0.841013 -66.7979
lclavicle -1.98785e-014 1.59028e-014
lhumerus -20.651 -25.6348 60.2648
lradius 75.6312
lwrist 19.2898
lhand -28.9558 -59.8253
lfingers 7.12502
lthumb -2.30901 -29.8581
rfemur -7.67435 9.25113 13.1604
rtibia -1.86858e-014
rfoot -11.2914 -13.8245
rtoes -5.17929
lfemur -20.447 3.3756 -12.1387
ltibia 31.1268
lfoot -20.1704 10.9446
ltoes -55.7665
325
root -0.0801492 18.7161 4.5657 9.48914 -7.74837 -3.37497
lowerback 27.7582 3.04485 -8.7376
upperback 7.47898 1.23887 -2.16954
thorax -7.04441 0.626163 2.19303
lowerneck -11.2955 5.98039 9.52625
upperneck 27.4812 7.30529 -3.95391
head 11.2961 3.76943 -2.10538
rclavicle 2.38542e-014 -1.11319e-014
rhumerus 5.76409 43.5073 -84.1159
rradius 97.941
rwrist -61.8935
rhand -27.0115 -38.7262
rfingers 7.12502
rthumb -0.43118 -68.7055
lclavicle 2.38542e-014 -1.11319e-014
lhumerus -20.0644 -24.5479 59.9713
lradius 74.7174
lwrist 17.2737
lhand -29.8255 -58.9314
lfingers 7.12502
lthumb -3.14898 -28.9749
rfemur -8.03482 9.19447 13.1719
rtibia 1.63003e-014
rfoot -11.2444 -13.781
rtoes -4.58849
lfemur -20.9106 3.53007 -12.0872
ltibia 31.2982
lfoot -20.1492 10.8463
ltoes -55.9924
326
root -0.0767177 18.7135 4.53922 9.75009 -7.64547 -3.50087
lowerback 28.0491 3.02978 -8.6536
upperback 7.51451 1.21847 -2.09088
thorax -7.14454 0.617755 2.23461
lowerneck -11.4896 5.74076 9.32938
upperneck 27.1087 6.95685 -3.86227
head 11.1511 3.59998 -2.08242
rclavicle -1.11319e-014 0
rhumerus 5.3818 43.7478 -84.666
rradius 97.4677
rwrist -61.6554
rhand -26.7909 -39.8788
rfingers 7.12502
rthumb -0.21818 -69.8584
lclavicle -1.11319e-014 0
lhumerus -19.4395 -23.4876 59.9376
lradius 73.5985
lwrist 16.3451
lhand -29.8034 -59.2501
lfingers 7.12502
lthumb -3.1276 -29.2933
rfemur -8.37335 9.08404 13.2676
rtibia -7.95139e-016
rfoot -11.1729 -13.776
rtoes -4.61221
lfemur -21.3872 3.63371 -11.9487
ltibia 31.4874
lfoot -20.1072 10.6596
ltoes -56.1141
327
root -0.0670128 18.7117 4.52406 10.0001 -7.77342 -3.68219
lowerback 28.1508 3.05815 -8.61698
upperback 7.57994 1.2592 -2.04411
thorax -7.1245 0.63331 2.25141
lowerneck -11.627 5.54658 9.18192
upperneck 26.7329 6.65555 -3.72793
head 11.0006 3.46152 -2.04663
rclavicle 5.56597e-015 4.29375e-014
rhumerus 4.70808 43.7021 -85.4146
rradius 97.1183
rwrist -61.317
rhand -26.5892 -39.4875
rfingers 7.12502
rthumb -0.0233363 -69.4673
lclavicle 5.56597e-015 4.29375e-014
lhumerus -18.5279 -22.6416 60.052
lradius 71.9518
lwrist 16.4668
lhand -28.9655 -60.8549
lfingers 7.12502
lthumb -2.31838 -30.8877
rfemur -8.73191 9.20694 13.3507
rtibia 2.74323e-014
rfoot -11.111 -13.8285
rtoes -4.83398
lfemur -21.7703 3.72154 -11.7951
ltibia 31.6993
lfoot -20.1768 10.6746
ltoes -56.0856
328
root -0.0608522 18.7093 4.49533 10.2358 -7.69308 -3.78609
lowerback 28.394 2.99712 -8.70708
upperback 7.65408 1.13939 -1.98239
thorax -7.14728 0.575445 2.40894
lowerneck -11.8763 5.41436 8.94912
upperneck 26.3899 6.43533 -3.52915
head 10.887 3.35667 -1.95953
rclavicle -2.70347e-014 3.81667e-014
rhumerus 3.70626 43.1474 -86.6037
rradius 97.0106
rwrist -60.5434
rhand -26.3191 -38.8776
rfingers 7.12502
rthumb 0.237546 -68.8572
lclavicle -2.70347e-014 3.81667e-014
lhumerus -17.0474 -21.4883 60.0757
lradius 70.2329
lwrist 15.1377
lhand -28.4774 -61.3441
lfingers 7.12502
lthumb -1.84704 -31.3723
rfemur -9.06121 9.11617 13.41
rtibia -1.03368e-014
rfoot -11.1063 -13.8476
rtoes -4.36916
lfemur -22.2609 3.76134 -11.6862
ltibia 31.9261
lfoot -20.1076 10.6244
ltoes -56.0411
329
root -0.0492513 18.7061 4.4831 10.2522 -7.87751 -3.95001
lowerback 28.5816 3.01099 -8.80923
upperback 7.85293 1.11746 -1.96631
thorax -7.00986 0.55379 2.49236
lowerneck -12.2214 5.29887 8.70441
upperneck 26.1166 6.24068 -3.3445
head 10.8218 3.25997 -1.8705
rclavicle 7.95139e-016 1.11319e-014
rhumerus 3.46843 42.8605 -86.3314
rradius 97.0395
rwrist -60.7751
rhand -26.8324 -37.637
rfingers 7.12502
rthumb -0.258205 -67.6166
lclavicle 7.95139e-016 1.11319e-014
lhumerus -15.0788 -20.3884 60.0928
lradius 68.1156
lwrist 13.8993
lhand -27.7588 -61.6023
lfingers 7.12502
lthumb -1.15295 -31.6256
rfemur -9.14675 9.31823 13.4969
rtibia 1.63003e-014
rfoot -11.1107 -13.8195
rtoes -3.91324
lfemur -22.3737 3.87103 -11.5652
ltibia 32.1548
lfoot -20.2584 10.6737
ltoes -55.8775
330
root -0.0384731 18.7028 4.4682 10.3946 -8.05368 -4.11277
lowerback 28.6386 3.01636 -8.90944
upperback 7.99318 1.09119 -2.01481
thorax -6.87435 0.532052 2.50523
lowerneck -12.4629 5.18099 8.66092
upperneck 25.8361 6.01132 -3.17898
head 10.7419 3.16603 -1.82927
rclavicle 3.97569e-015 2.22639e-014
rhumerus 3.14178 42.1266 -86.0954
rradius 97.1642
rwrist -61.2584
rhand -27.538 -36.3693
rfingers 7.12502
rthumb -0.939672 -66.347
lclavicle 3.97569e-015 2.22639e-014
lhumerus -12.7511 -19.4927 60.1074
lradius 65.8425
lwrist 12.9324
lhand -27.1706 -61.9108
lfingers 7.12502
lthumb -0.584848 -31.9318
rfemur -9.38742 9.49831 13.5656
rtibia 1.15295e-014
rfoot -11.0534 -13.8512
rtoes -3.74756
lfemur -22.6501 4.09998 -11.4593
ltibia 32.4019
lfoot -20.3721 10.5749
ltoes -55.6881
331
root -0.0266687 18.6996 4.45065 10.5986 -8.07921 -4.26422
lowerback 28.6918 2.91995 -9.05145
upperback 8.0611 0.924371 -2.04731
thorax -6.80421 0.448793 2.60661
lowerneck -12.5213 5.13722 8.64946
upperneck 25.4955 5.88875 -2.99437
head 10.6131 3.12645 -1.77606
rclavicle 1.11319e-014 -5.56597e-014
rhumerus 2.65993 41.1396 -85.8584
rradius 97.4107
rwrist -61.5819
rhand -27.8587 -35.979
rfingers 7.12502
rthumb -1.24941 -65.9551
lclavicle 1.11319e-014 -5.56597e-014
lhumerus -10.3756 -18.4919 60.2541
lradius 63.4936
lwrist 12.191
lhand -26.7312 -62.166
lfingers 7.12502
lthumb -0.160463 -32.1863
rfemur -9.69114 9.52136 13.6367
rtibia -3.97569e-015
rfoot -10.9223 -13.9667
rtoes -4.03579
lfemur -23.0659 4.21589 -11.3461
ltibia 32.6619
lfoot -20.3697 10.4946
ltoes -55.5862
332
root -0.0183427 18.6949 4.42106 10.9077 -7.80771 -4.43081
lowerback 28.7227 2.61931 -9.34271
upperback 8.09107 0.47681 -1.92585
thorax -6.73354 0.234507 3.06036
lowerneck -12.5845 5.24979 8.38136
upperneck 25.2127 6.04281 -2.79814
head 10.5146 3.18883 -1.63914
rclavicle 3.65764e-014 1.43125e-014
rhumerus 2.30504 40.2809 -85.3513
rradius 97.7128
rwrist -61.6911
rhand -27.7845 -36.3004
rfingers 7.12502
rthumb -1.17774 -66.2769
lclavicle 3.65764e-014 1.43125e-014
lhumerus -8.12465 -17.0456 60.6171
lradius 61.0502
lwrist 11.5739
lhand -26.573 -62.346
lfingers 7.12502
lthumb -0.00766653 -32.3663
rfemur -10.0792 9.25257 13.7953
rtibia 2.18663e-014
rfoot -10.7587 -14.1415
rtoes -4.55992
lfemur -23.7282 4.2298 -11.1578
ltibia 32.9402
lfoot -20.1929 10.3135
ltoes -55.5667
333
root -0.00829857 18.6897 4.39769 10.9886 -7.59441 -4.65252
lowerback 28.9195 2.31519 -9.69435
upperback 8.1818 -0.00652997 -1.77633
thorax -6.65931 4.49124e-008 3.59118
lowerneck -12.7031 5.43215 8.0882
upperneck 25.0076 6.30796 -2.64349
head 10.4619 3.29472 -1.49725
rclavicle 1.90833e-014 -1.11319e-014
rhumerus 2.80505 39.9785 -83.435
rradius 97.6951
rwrist -62.5387
rhand -27.9773 -35.9905
rfingers 7.12502
rthumb -1.36396 -65.9659
lclavicle 1.90833e-014 -1.11319e-014
lhumerus -5.9451 -15.574 60.9556
lradius 58.7426
lwrist 11.2839
lhand -26.6425 -62.7546
lfingers 7.12502
lthumb -0.0748508 -32.7749
rfemur -10.1901 9.07962 14.044
rtibia 9.93923e-016
rfoot -10.6952 -14.3066
rtoes -5.01238
lfemur -24.0867 4.17135 -10.8894
ltibia 33.2307
lfoot -20.0951 10.0696
ltoes -55.4159
334
root 0.00146346 18.6838 4.37439 11.014 -7.39079 -4.87115
lowerback 29.2218 1.98797 -9.97167
upperback 8.25874 -0.520288 -1.70857
thorax -6.63998 -0.246374 3.99941
lowerneck -12.9043 5.65158 7.90493
upperneck 24.8692 6.59758 -2.50168
head 10.4553 3.42033 -1.37261
rclavicle 2.22639e-014 2.54444e-014
rhumerus 2.48015 38.9443 -82.6322
rradius 97.8885
rwrist -62.7922
rhand -28.9822 -35.7649
rfingers 7.12502
rthumb -2.33452 -65.7319
lclavicle 2.22639e-014 2.54444e-014
lhumerus -3.93758 -14.334 61.1066
lradius 56.8215
lwrist 11.2319
lhand -26.7881 -63.373
lfingers 7.12502
lthumb -0.21538 -33.3934
rfemur -10.2369 8.92211 14.2995
rtibia -2.18663e-015
rfoot -10.7107 -14.4399
rtoes -5.04592
lfemur -24.3894 4.031 -10.6021
ltibia 33.5396
lfoot -19.9861 9.76457
ltoes -55.0687
335
root 0.0124339 18.6766 4.35375 10.9261 -7.11091 -5.16085
lowerback 29.6368 1.5606 -10.0909
upperback 8.37116 -1.12757 -1.65048
thorax -6.61853 -0.538742 4.34146
lowerneck -13.137 5.92868 7.646
upperneck 24.7109 6.97628 -2.33032
head 10.4467 3.58263 -1.21198
rclavicle -6.36111e-014 -1.90833e-014
rhumerus 1.5698 37.6002 -82.553
rradius 98.4033
rwrist -62.5531
rhand -29.7512 -35.8406
rfingers 7.12502
rthumb -3.07722 -65.7981
lclavicle -6.36111e-014 -1.90833e-014
lhumerus -2.16351 -13.0508 61.1541
lradius 55.2262
lwrist 10.7629
lhand -26.9552 -63.9893
lfingers 7.12502
lthumb -0.376859 -34.0099
rfemur -10.1248 8.71575 14.6615
rtibia -1.15295e-014
rfoot -10.7428 -14.4974
rtoes -5.0534
lfemur -24.57 3.81247 -10.2272
ltibia 33.854
lfoot -19.909 9.49854
ltoes -54.7851
336
root 0.0305058 18.6703 4.35333 10.8136 -7.02129 -5.57806
lowerback 29.7651 1.13802 -9.99654
upperback 8.53096 -1.63425 -1.63274
thorax -6.42804 -0.794983 4.47833
lowerneck -13.2473 6.17874 7.42588
upperneck 24.475 7.3171 -2.15827
head 10.384 3.73335 -1.06683
rclavicle -1.74931e-014 -3.81667e-014
rhumerus 1.29038 35.6936 -81.85
rradius 99.0027
rwrist -62.5305
rhand -25.915 -41.4034
rfingers 7.12502
rthumb 0.627856 -71.3822
lclavicle -1.74931e-014 -3.81667e-014
lhumerus -0.634443 -11.9146 61.1689
lradius 53.94
lwrist 9.83244
lhand -26.7912 -64.6456
lfingers 7.12502
lthumb -0.218421 -34.666
rfemur -9.95566 8.71633 15.0903
rtibia 2.18663e-014
rfoot -10.6895 -14.5211
rtoes -5.83229
lfemur -24.5675 3.61871 -9.78224
ltibia 34.1502
lfoot -20.0521 9.50783
ltoes -54.7117
